# xmcd
#
# Track frame offsets:
#       150
#       14186
#       28141
#       39916
#       54644
#       68797
#       81192
#       94834
#       110888
#       124758
#
# Disc length: 1834 seconds
#
# Revision: 3
# Processed by: cddbd v1.5.2PL0 Copyright (c) Steve Scherf et al.
# Submitted via: WhereIsIt 3.26
#
DISCID=8b07280a
DTITLE=Various Artist - Country Classics Hits Of The 1972
DYEAR=1972
DGENRE=Country
TTITLE0=Lynn Anderson - Cry
TTITLE1=Barbara Fairchild - Teddy Bear Song
TTITLE2=Donna Fargo - The Happiest Girl in The Whole USA
TTITLE3=Don Gibson - Woman (Sensous Woman)
TTITLE4=Bob Luman - Lonely Women Make Good Lovers
TTITLE5=Jody Miller - There's A Party  Goin' On
TTITLE6=Johnny Paycheck - Someone To Give My Love To
TTITLE7=Ray Price - She's Got To Be A Saint
TTITLE8=Bobby G Rice - You Lay So Easy On My Mind
TTITLE9=Cal Smith - The Lord Knows I'm Drinking
EXTD=
EXTT0=
EXTT1=
EXTT2=
EXTT3=
EXTT4=
EXTT5=
EXTT6=
EXTT7=
EXTT8=
EXTT9=
PLAYORDER=
